<svg width="580" height="400" xmlns="http://www.w3.org/2000/svg">
 <!-- Created with SVG Editor - http://github.com/mzalive/SVG Editor/ -->

 <g>
  <title>background</title>
  <rect fill="#fff" id="canvas_background" height="402" width="582" y="-1" x="-1"/>
  <g display="none" overflow="visible" y="0" x="0" height="100%" width="100%" id="canvasGrid">
   <rect fill="url(#gridpattern)" stroke-width="0" y="0" x="0" height="100%" width="100%"/>
  </g>
 </g>
 <g>
  <title>Layer 1</title>
  <g id="svg_7">
   <path id="svg_4" fill="#ffffff" d="m275.674649,196.497218l-3.866666,0l0,-1.766667l9.916666,0l0,1.766667l-3.883333,0l0,10.1l-2.166667,0l0,-10.1zm10.600624,1.483333c0.322222,0 0.6,0.044444 0.833333,0.133333l-0.016667,1.9c-0.355556,-0.144444 -0.722222,-0.216667 -1.1,-0.216667c-0.711111,0 -1.255555,0.205556 -1.633333,0.616667c-0.366667,0.411111 -0.55,0.955556 -0.55,1.633333l0,4.55l-2.066667,0l0,-6.033333c0,-0.888889 -0.044444,-1.683333 -0.133333,-2.383333l1.95,0l0.166667,1.483333c0.211111,-0.544444 0.544444,-0.961111 1,-1.25c0.455556,-0.288889 0.972222,-0.433333 1.55,-0.433333zm9.880625,0.2l0,8.416666l-2.05,0l0,-1.35c-0.255556,0.466667 -0.622222,0.833333 -1.1,1.1c-0.477778,0.255556 -1.022222,0.383333 -1.633333,0.383333c-0.733333,0 -1.383333,-0.177778 -1.95,-0.533333c-0.566667,-0.355556 -1.005556,-0.861111 -1.316667,-1.516667c-0.311111,-0.655556 -0.466667,-1.416667 -0.466667,-2.283333c0,-0.866667 0.155556,-1.633333 0.466667,-2.3c0.322222,-0.677778 0.766667,-1.2 1.333333,-1.566667c0.566667,-0.377778 1.211111,-0.566667 1.933333,-0.566667c0.611111,0 1.155556,0.133333 1.633333,0.4c0.477778,0.255556 0.844444,0.616667 1.1,1.083333l0,-1.266667l2.05,0zm-4.216666,6.916666c0.688889,0 1.222222,-0.238889 1.6,-0.716667c0.377778,-0.477778 0.566667,-1.15 0.566667,-2.016667c0,-0.888889 -0.188889,-1.572222 -0.566667,-2.05c-0.377778,-0.477778 -0.916667,-0.716667 -1.616667,-0.716667c-0.688889,0 -1.227778,0.25 -1.616667,0.75c-0.377778,0.488889 -0.566667,1.172222 -0.566667,2.05c0,0.866667 0.188889,1.533333 0.566667,2c0.388889,0.466667 0.933333,0.7 1.633333,0.7zm10.469027,-9.116666c-0.9,0 -1.35,0.494444 -1.35,1.483333l0,0.716667l1.883333,0l0,1.566667l-1.883333,0l0,6.85l-2.083333,0l0,-6.85l-1.6,0l0,-1.566667l1.6,0l0,-0.816667c0,-1 0.25,-1.766667 0.75,-2.3c0.511111,-0.544444 1.238889,-0.816667 2.183333,-0.816667c0.522222,0 0.961111,0.066667 1.316667,0.2l0,1.65c-0.311111,-0.077778 -0.583333,-0.116667 -0.816667,-0.116667zm10.105277,2.2l0,8.416666l-2.05,0l0,-1.35c-0.255556,0.466667 -0.622222,0.833333 -1.1,1.1c-0.477778,0.255556 -1.022222,0.383333 -1.633333,0.383333c-0.733333,0 -1.383333,-0.177778 -1.95,-0.533333c-0.566667,-0.355556 -1.005556,-0.861111 -1.316667,-1.516667c-0.311319,-0.655556 -0.466875,-1.416667 -0.466875,-2.283333c0,-0.866667 0.155556,-1.633333 0.466875,-2.3c0.322222,-0.677778 0.766667,-1.2 1.333333,-1.566667c0.566667,-0.377778 1.211111,-0.566667 1.933333,-0.566667c0.611111,0 1.155556,0.133333 1.633333,0.4c0.477778,0.255556 0.844444,0.616667 1.1,1.083333l0,-1.266667l2.05,0zm-4.216666,6.916666c0.688889,0 1.222222,-0.238889 1.6,-0.716667c0.377778,-0.477778 0.566667,-1.15 0.566667,-2.016667c0,-0.888889 -0.188889,-1.572222 -0.566667,-2.05c-0.377778,-0.477778 -0.916667,-0.716667 -1.616667,-0.716667c-0.688889,0 -1.227778,0.25 -1.616667,0.75c-0.377778,0.488889 -0.566667,1.172222 -0.566667,2.05c0,0.866667 0.188889,1.533333 0.566667,2c0.388889,0.466667 0.933333,0.7 1.633333,0.7zm6.485416,-10.766666l2.066667,0l0,12.266666l-2.066667,0l0,-12.266666zm12.479166,3.85l0,8.15c0,1.311111 -0.361111,2.305555 -1.083333,2.983333c-0.722222,0.677778 -1.783333,1.016667 -3.183333,1.016667c-1.3,0 -2.444444,-0.272222 -3.433333,-0.816667l0.333333,-1.583333c1.022222,0.533333 2.038889,0.8 3.05,0.8c1.5,0 2.25,-0.744444 2.25,-2.233333l0,-1.666667c-0.255556,0.455556 -0.627778,0.827778 -1.116667,1.116667c-0.488889,0.277778 -1.038889,0.416667 -1.65,0.416667c-0.733333,0 -1.388889,-0.172222 -1.966667,-0.516667c-0.566667,-0.355556 -1.011111,-0.85 -1.333333,-1.483333c-0.311111,-0.644444 -0.466667,-1.377778 -0.466667,-2.2c0,-0.822222 0.155556,-1.55 0.466667,-2.183333c0.322222,-0.644444 0.766667,-1.138889 1.333333,-1.483333c0.577778,-0.355556 1.233333,-0.533333 1.966667,-0.533333c0.622222,0 1.172222,0.133333 1.65,0.4c0.488889,0.255556 0.861111,0.616667 1.116667,1.083333l0,-1.266667l2.066667,0zm-4.283333,6.55c0.688889,0 1.227778,-0.227778 1.616667,-0.683333c0.4,-0.455556 0.6,-1.083333 0.6,-1.883333c0,-0.8 -0.194444,-1.427778 -0.583333,-1.883333c-0.388889,-0.455556 -0.933333,-0.683333 -1.633333,-0.683333c-0.688889,0 -1.233333,0.227778 -1.633333,0.683333c-0.388889,0.455556 -0.583333,1.083333 -0.583333,1.883333c0,0.8 0.194444,1.427778 0.583333,1.883333c0.4,0.455556 0.944444,0.683333 1.633333,0.683333zm14.584027,-6.55l0,8.416666l-2.05,0l0,-1.35c-0.255556,0.466667 -0.622222,0.833333 -1.1,1.1c-0.477778,0.255556 -1.022222,0.383333 -1.633333,0.383333c-0.733333,0 -1.383333,-0.177778 -1.95,-0.533333c-0.566667,-0.355556 -1.005556,-0.861111 -1.316667,-1.516667c-0.311111,-0.655556 -0.466667,-1.416667 -0.466667,-2.283333c0,-0.866667 0.155556,-1.633333 0.466667,-2.3c0.322222,-0.677778 0.766667,-1.2 1.333333,-1.566667c0.566667,-0.377778 1.211111,-0.566667 1.933333,-0.566667c0.611111,0 1.155556,0.133333 1.633333,0.4c0.477778,0.255556 0.844444,0.616667 1.1,1.083333l0,-1.266667l2.05,0zm-4.216666,6.916666c0.688889,0 1.222222,-0.238889 1.6,-0.716667c0.377778,-0.477778 0.566667,-1.15 0.566667,-2.016667c0,-0.888889 -0.188889,-1.572222 -0.566667,-2.05c-0.377778,-0.477778 -0.916667,-0.716667 -1.616667,-0.716667c-0.688889,0 -1.227778,0.25 -1.616667,0.75c-0.377778,0.488889 -0.566667,1.172222 -0.566667,2.05c0,0.866667 0.188889,1.533333 0.566667,2c0.388889,0.466667 0.933333,0.7 1.633333,0.7zm11.018749,-7.116666c0.322222,0 0.6,0.044444 0.833333,0.133333l-0.016667,1.9c-0.355556,-0.144444 -0.722222,-0.216667 -1.1,-0.216667c-0.711111,0 -1.255555,0.205556 -1.633333,0.616667c-0.366667,0.411111 -0.55,0.955556 -0.55,1.633333l0,4.55l-2.066667,0l0,-6.033333c0,-0.888889 -0.044444,-1.683333 -0.133333,-2.383333l1.95,0l0.166667,1.483333c0.211111,-0.544444 0.544444,-0.961111 1,-1.25c0.455556,-0.288889 0.972222,-0.433333 1.55,-0.433333z"/>
   <circle transform="matrix(0.6944444113307533,0,0,0.6944444113307533,0,0) " id="svg_5" fill="#ffffff" r="20.5" cy="288.000008" cx="358.615514"/>
   <path id="svg_6" fill="#ffffff" d="m248.235762,196.349996l-4.188889,0l0,-1.913889l10.743055,0l0,1.913889l-4.206944,0l0,10.941666l-2.347222,0l0,-10.941666z"/>
  </g>
  <text transform="matrix(1.0300606583263792,0,0,0.8274906327785829,-5.612514933366576,38.022899768446486) " xml:space="preserve" text-anchor="start" font-family="Helvetica, Arial, sans-serif" font-size="24" id="svg_10" y="205.247472" x="239.812106" stroke-width="0" fill="#458FF6">T</text>
 </g>
</svg>